<?xml version="1.0" encoding="UTF-8"?><svg id="Ebene_1" xmlns="http://www.w3.org/2000/svg" viewBox="0 0 517.83 494.29"><defs><style>.cls-1{fill:#767676;}</style></defs><path class="cls-1" d="m470.76,47.08h-47.08V0h-47.08v117.69h-47.08V47.08h-141.23V0h-47.08v117.69h-47.08V47.08h-47.08C21.11,47.08,0,68.21,0,94.15v353.07c0,25.95,21.11,47.08,47.08,47.08h423.68c25.96,0,47.08-21.13,47.08-47.08V94.15c0-25.94-21.11-47.08-47.08-47.08ZM164.76,423.68h-94.15v-94.15h94.15v94.15Zm0-141.23h-94.15v-94.15h94.15v94.15Zm141.23,141.23h-94.15v-94.15h94.15v94.15Zm0-141.23h-94.15v-94.15h94.15v94.15Zm141.23,0h-94.15v-94.15h94.15v94.15Z"/></svg>