<?xml version="1.0" standalone="no"?>
<!DOCTYPE svg PUBLIC "-//W3C//DTD SVG 20010904//EN"
 "http://www.w3.org/TR/2001/REC-SVG-20010904/DTD/svg10.dtd">
<svg version="1.0" xmlns="http://www.w3.org/2000/svg"
 width="387.000000pt" height="364.000000pt" viewBox="0 0 387.000000 364.000000"
 preserveAspectRatio="xMidYMid meet">

<g transform="translate(0.000000,364.000000) scale(0.100000,-0.100000)"
fill="#000000" stroke="none">
<path d="M2059 3104 c-20 -14 -65 -32 -100 -40 -35 -8 -73 -18 -84 -23 -11 -4
-47 -18 -80 -30 -33 -12 -85 -33 -115 -46 -30 -14 -86 -31 -125 -39 -38 -8
-90 -23 -115 -32 -25 -9 -67 -21 -95 -25 -129 -21 -154 -27 -205 -52 -30 -14
-68 -29 -85 -33 -44 -10 -52 -19 -88 -98 -17 -39 -45 -96 -61 -126 -70 -134
-118 -233 -161 -335 -46 -111 -151 -305 -164 -305 -4 0 -13 -11 -19 -25 -6
-14 -35 -55 -64 -92 -87 -109 -146 -194 -179 -258 -17 -33 -37 -67 -44 -75 -6
-8 -23 -35 -36 -60 -13 -25 -39 -65 -58 -90 -18 -25 -38 -56 -44 -70 -6 -14
-19 -35 -30 -47 -26 -29 -18 -56 18 -64 17 -4 116 -7 222 -8 116 -1 194 -5
198 -11 14 -23 53 -9 81 28 15 20 34 41 41 45 7 4 13 13 13 19 0 6 11 26 25
44 14 18 37 56 53 86 32 63 98 153 137 188 51 46 177 203 196 244 11 23 30 59
43 81 14 22 34 59 45 81 18 36 94 135 166 217 14 15 25 31 25 35 0 4 14 22 31
40 26 27 96 117 204 261 11 15 55 62 98 105 42 43 77 81 77 85 0 4 51 59 113
123 61 65 140 147 175 184 65 69 87 118 61 135 -21 13 -31 11 -70 -17z"/>
<path d="M2321 3057 c-13 -6 -29 -26 -35 -44 -6 -17 -57 -80 -113 -138 -101
-105 -103 -109 -103 -155 0 -50 -2 -46 101 -177 49 -63 129 -187 129 -201 0
-5 9 -17 20 -27 11 -10 20 -23 20 -28 0 -6 7 -19 17 -29 9 -10 21 -27 27 -37
6 -11 38 -54 71 -96 33 -43 71 -97 85 -120 14 -24 32 -51 41 -62 9 -10 51 -69
94 -130 44 -62 83 -113 87 -113 4 0 8 -5 8 -10 0 -16 67 -108 129 -179 61 -69
124 -151 119 -155 -23 -16 -138 -36 -473 -80 -55 -7 -117 -21 -137 -30 -21 -9
-54 -16 -73 -16 -20 0 -46 -5 -57 -11 -11 -6 -64 -19 -117 -29 -282 -55 -473
-106 -636 -172 -55 -22 -109 -41 -120 -42 -11 -2 -38 -8 -60 -14 -94 -24 -138
-32 -186 -32 -53 0 -204 -31 -276 -57 -24 -8 -52 -12 -63 -8 -30 9 -72 -20
-68 -48 3 -21 9 -22 158 -29 85 -4 227 -15 315 -25 88 -9 270 -19 405 -22 135
-3 251 -10 259 -15 8 -5 236 -13 507 -17 331 -6 535 -13 624 -24 73 -8 214
-15 316 -15 183 0 185 0 193 23 16 40 30 265 33 498 2 224 2 225 -22 260 -14
19 -34 44 -45 55 -132 140 -194 231 -256 375 -13 30 -40 81 -59 114 -20 33
-47 82 -61 109 -39 78 -43 86 -51 86 -5 0 -8 4 -8 10 0 10 -50 87 -143 221
-28 41 -67 97 -85 125 -37 55 -67 95 -132 178 -25 32 -54 70 -66 86 -32 43
-134 158 -177 199 -65 61 -92 71 -136 48z"/>
</g>
</svg>
