<?xml version="1.0" encoding="utf-8"?>
<!-- Generator: Adobe Illustrator 25.2.0, SVG Export Plug-In . SVG Version: 6.00 Build 0)  -->
<svg version="1.1" id="Ebene_1" xmlns="http://www.w3.org/2000/svg" xmlns:xlink="http://www.w3.org/1999/xlink" x="0px" y="0px"
	 viewBox="0 0 566.9 566.9" style="enable-background:new 0 0 566.9 566.9;" xml:space="preserve">
<style type="text/css">
	.st0{fill:#6C558C;}
	.st1{fill:#489FC0;}
	.st2{fill:#49B69C;}
	.st3{fill:#B71E3F;}
	.st4{fill:#D2B47C;}
</style>
<g>
	<path class="st0" d="M282.8,77.7c20.1,0,36.4-16.8,36.4-37.6c0-20.8-16.3-37.6-36.4-37.6c-20.1,0-36.4,16.8-36.4,37.6
		C246.4,60.8,262.7,77.7,282.8,77.7"/>
	<path class="st1" d="M155.3,491.1c-16.5-11.9-39.2-7.8-50.8,9.2c-11.5,17-7.5,40.4,8.9,52.3c16.5,11.9,39.2,7.8,50.8-9.2
		C175.8,526.5,171.8,503,155.3,491.1"/>
	<path class="st2" d="M71.7,238.5c5.2-20-6.3-40.6-25.8-46C26.4,187.1,6.5,199,1.3,219c-5.2,20,6.3,40.6,25.8,46
		C46.5,270.4,66.4,258.5,71.7,238.5"/>
	<path class="st3" d="M496.2,236.9c6.9,19.5,27.8,29.6,46.7,22.5c18.9-7.1,28.7-28.7,21.8-48.2c-6.9-19.5-27.8-29.6-46.7-22.5
		C499.1,195.8,489.3,217.4,496.2,236.9"/>
	<path class="st0" d="M251.5,124.6c1.2,0.5,2.4,0.9,3.4,1l-27.7,80.2c16.4-9.6,35.5-15.2,55.7-15.2c21.4,0,41.4,6.1,58.5,16.8
		L312,123.8l76.2-33.3c0,0,10-4.4,5.8-14.7l-1.2-3c0,0-4.2-10.3-14.3-5.9l-74.9,32.8c-1.6-4.1-6.7-13.3-20.7-12.8
		c-15.4,0.5-19.6,14.7-19.6,14.7l-0.2,0.6c-1-0.7-1.8-1.1-1.8-1.1l-78.2-34.2c-10-4.4-14.3,5.9-14.3,5.9l-1.2,3
		c-4.2,10.3,5.8,14.7,5.8,14.7L251.5,124.6z"/>
	<path class="st3" d="M538.8,325.8l-55.5-61.4c3.2-2.9,9.8-11.1,4.6-24.5c-5.7-14.7-20.1-13.9-20.1-13.9l-0.7,0
		c0.3-1.3,0.4-2.2,0.4-2.2l4.4-87.4c0.6-11.2-10.3-11.8-10.3-11.8l-3.1-0.2c-10.9-0.6-11.4,10.6-11.4,10.6l-4.4,87.4
		c-0.1,1.4,0,2.6,0.3,3.7l-78.5,0.6c19.7,21,31.9,49.5,31.9,81c0,12.8-2,25-5.7,36.5l73.5-63.4l56.5,62.4c0,0,7.4,8.2,15.4,0.6
		l2.3-2.2C538.3,341.6,546.2,334,538.8,325.8z"/>
	<path class="st4" d="M467.9,499.6c-11.5-17-34.3-21.1-50.8-9.2c-16.5,11.9-20.5,35.3-8.9,52.3c11.5,17,34.3,21.1,50.8,9.2
		C475.4,540,479.4,516.6,467.9,499.6z"/>
	<path class="st1" d="M207.1,471.2c-0.7-1.2-1.5-2.1-2.3-2.9l62-45.4c-39.9-6.1-73-33.6-87.8-70.9l-22,84.1l-81-17.7
		c0,0-10.6-2.3-12.9,8.6l-0.7,3.2c0,0-2.3,11,8.4,13.3l79.6,17.4c-1,4.3-1.9,14.9,9.9,22.7c12.9,8.7,24.2-0.4,24.2-0.4l0.5-0.4
		c0.5,1.2,0.9,2,0.9,2l45,74.2c5.8,9.5,15,3.6,15,3.6l2.7-1.7c9.2-5.9,3.5-15.4,3.5-15.4L207.1,471.2z"/>
	<path class="st2" d="M170.6,307.8c0-39.2,18.8-73.8,47.6-94.9l-95.7,8.5l-11.5-84.5c0,0-1.5-11.1-12.3-9.5l-3.1,0.5
		c0,0-10.8,1.6-9.3,12.7l11.3,83.1c-4.2,0.5-14.2,3.3-17.4,17.3c-3.5,15.5,8.7,23.3,8.7,23.3l0.5,0.4c-1,0.9-1.5,1.6-1.5,1.6
		l-52.3,69c-6.7,8.8,1.9,15.7,1.9,15.7l2.5,2c8.6,6.9,15.3-1.9,15.3-1.9l52.3-69c0.8-1.1,1.4-2.1,1.8-3.2l62.2,44.2
		C170.9,317.9,170.6,312.9,170.6,307.8z"/>
	<path class="st4" d="M513.2,426.9l-0.7-3.2c-2.3-11-12.9-8.6-12.9-8.6l-83.1,18.2c-1.3,0.3-2.4,0.7-3.4,1.2l-23.4-87.7
		c-13.5,39.2-46.9,68.7-87.6,75.7l65.3,47.3l-43.9,72.4c0,0-5.8,9.5,3.5,15.4l2.7,1.7c0,0,9.2,5.9,15-3.6l43.1-71.2
		c3.6,2.4,12.9,6.9,24.1-1.8c12.3-9.5,7.9-23.6,7.9-23.6l-0.2-0.7c1.3,0,2.1-0.2,2.1-0.2l83.1-18.2
		C515.5,437.9,513.2,426.9,513.2,426.9z"/>
</g>
</svg>
