<?xml version="1.0" encoding="UTF-8"?>
<svg id="Ebene_1" xmlns="http://www.w3.org/2000/svg" viewBox="0 0 409.09 450.01">
    <defs>
        <style>.cls-1{fill:#767676;}</style>
    </defs>
    <path class="cls-1"
          d="m403.11,190.09L219.01,5.99c-7.99-7.99-20.93-7.99-28.92,0L5.99,190.09c-5.85,5.85-7.59,14.64-4.43,22.29,3.16,7.64,10.63,12.62,18.9,12.62h61.37v204.55c0,11.3,9.15,20.46,20.46,20.46h81.82c5.43,0,10.63-2.16,14.46-6l122.73-122.73c3.84-3.83,5.99-9.03,5.99-14.45v-81.82h61.37c8.27,0,15.74-4.98,18.9-12.62,3.16-7.65,1.42-16.44-4.43-22.29Zm-239.47,219.01v-122.73h122.73l-122.73,122.73Z"/>
</svg>