<?xml version="1.0" encoding="utf-8"?>
<!-- Generator: Adobe Illustrator 26.4.1, SVG Export Plug-In . SVG Version: 6.00 Build 0)  -->
<svg version="1.1" id="Ebene_1" xmlns="http://www.w3.org/2000/svg" xmlns:xlink="http://www.w3.org/1999/xlink" x="0px" y="0px"
	 viewBox="0 0 24 24" style="enable-background:new 0 0 24 24;" xml:space="preserve">
<style type="text/css">
	.st0{fill:none;}
	.st1{fill:#B81F40;}
</style>
<g id="Frame_-_24px">
	<rect class="st0" width="24" height="24"/>
</g>
<g id="Filled_Icons">
	<g>
		<g>
			<circle class="st1" cx="7" cy="5" r="3"/>
			<path class="st1" d="M7,8c-2.8,0-5,2.2-5,5v3c0,0.6,0.4,1,1,1h1v4c0,0.6,0.4,1,1,1h4c0.6,0,1-0.4,1-1v-4h1c0.6,0,1-0.4,1-1v-3
				C12,10.2,9.8,8,7,8z"/>
		</g>
		<path class="st1" d="M24,7V5h-1.1c-0.1-0.6-0.4-1.2-0.7-1.8L23,2.5L21.5,1l-0.8,0.8c-0.5-0.3-1.1-0.6-1.8-0.7V0h-2v1.1
			c-0.6,0.1-1.2,0.4-1.8,0.7L14.5,1l-1.4,1.4l0.8,0.8c-0.3,0.5-0.6,1.1-0.7,1.8H12v2h1.1c0.1,0.6,0.4,1.2,0.7,1.8l-0.8,0.8l1.4,1.4
			l0.8-0.8c0.5,0.3,1.1,0.6,1.8,0.7V12h2v-1.1c0.6-0.1,1.2-0.4,1.8-0.7l0.8,0.8L23,9.5l-0.8-0.8c0.3-0.5,0.6-1.1,0.7-1.8H24z M18,8
			c-1.1,0-2-0.9-2-2s0.9-2,2-2c1.1,0,2,0.9,2,2S19.1,8,18,8"/>
	</g>
</g>
</svg>
