<?xml version="1.0" encoding="utf-8"?>
<!-- Generator: Adobe Illustrator 25.2.0, SVG Export Plug-In . SVG Version: 6.00 Build 0)  -->
<svg version="1.1" id="Ebene_1" xmlns="http://www.w3.org/2000/svg" xmlns:xlink="http://www.w3.org/1999/xlink" x="0px" y="0px"
	 viewBox="0 0 141.7 141.7" style="enable-background:new 0 0 141.7 141.7;" xml:space="preserve">
<style type="text/css">
	.st0{fill:#B71E3F;}
</style>
<g>
	<path class="st0" d="M126.6,80.6c-6.2,2.8-13.1,4.4-20.3,4.4c-27.4,0-49.6-22.2-49.6-49.6c0-7.2,1.6-14.1,4.4-20.3
		c-8.6,1.5-16.6,4.9-22.5,9.3L28.3,14.2L14.2,28.3l10.2,10.2c-3.2,4.4-6.5,10.9-8.4,18.1H0V85h16c1.9,7.2,5.1,13.8,8.4,18.1
		l-10.2,10.2l14.2,14.2l10.2-10.2c4.3,3.2,10.9,6.5,18.1,8.4v16H85v-16c7.2-1.9,13.8-5.2,18.1-8.4l10.2,10.2l14.2-14.2l-10.2-10.2
		C121.7,97.3,125.1,89.3,126.6,80.6z"/>
	<path class="st0" d="M141.7,41.9V29h-10.6c-0.6-2.2-1.4-4.3-2.5-6.2l6.7-6.7l-9.7-9.7l-6.7,6.7c-1.9-1.1-4-2-6.2-2.5V0H99.9v10.6
		c-2.2,0.6-4.3,1.4-6.2,2.5L87,6.4l-9.7,9.7l6.7,6.7c-1.1,1.9-2,4-2.5,6.2H70.9v12.9h10.6c0.6,2.2,1.4,4.3,2.5,6.2l-6.7,6.7l9.7,9.7
		l6.7-6.7c1.9,1.1,4,2,6.2,2.5v10.6h12.9V60.3c2.2-0.6,4.3-1.4,6.2-2.5l6.7,6.7l9.7-9.7l-6.7-6.7c1.1-1.9,2-4,2.5-6.2H141.7z
		 M106.3,49.6c-7.8,0-14.2-6.3-14.2-14.2s6.3-14.2,14.2-14.2s14.2,6.3,14.2,14.2S114.1,49.6,106.3,49.6z"/>
</g>
</svg>
