<?xml version="1.0" encoding="utf-8"?>
<!-- Generator: Adobe Illustrator 25.2.0, SVG Export Plug-In . SVG Version: 6.00 Build 0)  -->
<svg version="1.1" id="Ebene_1" xmlns="http://www.w3.org/2000/svg" xmlns:xlink="http://www.w3.org/1999/xlink" x="0px" y="0px"
	 viewBox="0 0 141.7 141.7" style="enable-background:new 0 0 141.7 141.7;" xml:space="preserve">
<style type="text/css">
	.st0{fill:#B71E3F;}
</style>
<path class="st0" d="M128.8,16.1H116V3.2h-12.9v32.2H90.2V16.1H51.5V3.2H38.7v32.2H25.8V16.1H12.9C5.8,16.1,0,21.9,0,29v96.6
	c0,7.1,5.8,12.9,12.9,12.9h116c7.1,0,12.9-5.8,12.9-12.9V29C141.7,21.9,136,16.1,128.8,16.1z M45.1,119.2H19.3V93.4h25.8V119.2z
	 M45.1,80.5H19.3V54.8h25.8V80.5z M83.8,119.2H58V93.4h25.8V119.2z M83.8,80.5H58V54.8h25.8V80.5z M122.4,80.5H96.6V54.8h25.8V80.5z
	"/>
</svg>
