<?xml version="1.0" encoding="utf-8"?>
<!-- Generator: Adobe Illustrator 25.2.3, SVG Export Plug-In . SVG Version: 6.00 Build 0)  -->
<svg version="1.1" id="Ebene_1" xmlns="http://www.w3.org/2000/svg" xmlns:xlink="http://www.w3.org/1999/xlink" x="0px" y="0px"
	 viewBox="0 0 141.7 141.7" style="enable-background:new 0 0 141.7 141.7;" xml:space="preserve">
<style type="text/css">
	.st0{fill:#575756;}
</style>
<g>
	<path class="st0" d="M84.3,91.8l-44.9,9.6l9-47.9L82.5,17H23.2c-7,0-12.7,6.1-12.7,13.6v94.9c0,7.5,5.7,13.6,12.7,13.6h88.9
		c7,0,12.7-6.1,12.7-13.6V48.5L84.3,91.8z"/>
	<polygon class="st0" points="60.1,60.1 78.1,79.3 55.6,84.1 	"/>
	<path class="st0" d="M127.4,26.5c5-5.3,5-13.9,0-19.2c-5-5.3-13-5.3-18,0L69.1,50.5l18,19.2L127.4,26.5z"/>
</g>
</svg>
