<?xml version="1.0" encoding="utf-8"?>
<!-- Generator: Adobe Illustrator 25.2.0, SVG Export Plug-In . SVG Version: 6.00 Build 0)  -->
<svg version="1.1" id="Ebene_1" xmlns="http://www.w3.org/2000/svg" xmlns:xlink="http://www.w3.org/1999/xlink" x="0px" y="0px"
	 viewBox="0 0 141.7 141.7" style="enable-background:new 0 0 141.7 141.7;" xml:space="preserve">
<style type="text/css">
	.st0{fill:#B71E3F;}
</style>
<path class="st0" d="M70.5,0C31.5,0-0.3,31.8-0.3,70.9c0,39.1,31.8,70.9,70.9,70.9s70.9-31.8,70.9-70.9C141.4,31.8,109.6,0,70.5,0z
	 M70.5,33.7c4.9,0,8.9,4,8.9,8.9s-4,8.9-8.9,8.9c-4.9,0-8.9-4-8.9-8.9S65.7,33.7,70.5,33.7z M91.8,106.3H49.3V92.2h14.2V70.9h-7.1
	V56.7h14.2c3.9,0,7.1,3.2,7.1,7.1v28.3h14.2V106.3z"/>
</svg>
