<?xml version="1.0" encoding="utf-8"?>
<!-- Generator: Adobe Illustrator 25.2.0, SVG Export Plug-In . SVG Version: 6.00 Build 0)  -->
<svg version="1.1" id="Ebene_1" xmlns="http://www.w3.org/2000/svg" xmlns:xlink="http://www.w3.org/1999/xlink" x="0px" y="0px"
	 viewBox="0 0 141.7 141.7" style="enable-background:new 0 0 141.7 141.7;" xml:space="preserve">
<style type="text/css">
	.st0{fill:#B71E3F;}
</style>
<path class="st0" d="M127.6,0H14.2C6.3,0,0,6.3,0,14.2v85c0,7.8,6.3,14.2,14.2,14.2h7.1v28.3l28.3-28.3h78c7.8,0,14.2-6.3,14.2-14.2
	v-85C141.7,6.3,135.4,0,127.6,0z M92.1,26.6c4.9,0,8.9,4,8.9,8.9s-4,8.9-8.9,8.9s-8.9-4-8.9-8.9S87.2,26.6,92.1,26.6z M49.6,26.6
	c4.9,0,8.9,4,8.9,8.9s-4,8.9-8.9,8.9s-8.9-4-8.9-8.9S44.7,26.6,49.6,26.6z M70.9,85c-14.5,0-27-8.8-32.4-21.3h64.9
	C97.8,76.3,85.4,85,70.9,85z"/>
</svg>
