<?xml version="1.0" encoding="UTF-8"?><svg id="Ebene_1" xmlns="http://www.w3.org/2000/svg" viewBox="0 0 486.53 486.53"><defs><style>.cls-1{fill:#767676;}</style></defs><path class="cls-1" d="m435.85,121.63c-16.47,0-30.99,8.02-40.26,20.23l-51.94-20.77c.6-3.13.97-6.31.97-9.6s-.37-6.47-.97-9.59l51.94-20.78c9.26,12.21,23.79,20.23,40.26,20.23,27.94,0,50.68-22.74,50.68-50.68S463.79,0,435.85,0s-50.68,22.74-50.68,50.68c0,.61.16,1.19.18,1.8l-56.37,22.55c-9.12-8.77-21.42-14.21-35.03-14.21-27.94,0-50.68,22.74-50.68,50.68s22.74,50.68,50.68,50.68c13.61,0,25.91-5.45,35.03-14.21l56.37,22.55c-.02.61-.18,1.19-.18,1.8,0,27.94,22.74,50.68,50.68,50.68s50.68-22.74,50.68-50.68-22.74-50.68-50.68-50.68Z"/><path class="cls-1" d="m127.67,247.16c20.33-9.85,34.51-30.51,34.51-54.58,0-33.54-27.28-60.82-60.82-60.82s-60.82,27.28-60.82,60.82c0,24.07,14.17,44.73,34.51,54.58C31.96,258.85,0,297.89,0,344.62v40.54c0,11.19,9.08,20.27,20.27,20.27h20.27v60.82c0,11.19,9.08,20.27,20.27,20.27h81.09c11.19,0,20.27-9.08,20.27-20.27v-60.82h20.27c11.19,0,20.27-9.08,20.27-20.27v-40.54c0-46.73-31.95-85.78-75.05-97.46Z"/><path class="cls-1" d="m319.36,373.47c15.23-11.07,25.26-28.89,25.26-49.12,0-33.54-27.28-60.82-60.82-60.82s-60.82,27.28-60.82,60.82c0,20.23,10.03,38.05,25.26,49.12-26.85,13.22-45.53,40.62-45.53,72.52v20.27c0,11.19,9.08,20.27,20.27,20.27h121.63c11.19,0,20.27-9.08,20.27-20.27v-20.27c0-31.89-18.68-59.29-45.53-72.52Z"/></svg>